<svg width="90" height="90" viewBox="0 0 90 90" fill="none" xmlns="http://www.w3.org/2000/svg">
<path d="M33.75 16.875V25.3125H16.875V33.75H8.4375V42.1875H5.80078C4.93286 42.2095 4.11987 42.627 3.60352 43.3301C3.60352 43.3301 3.36182 43.6267 3.25195 43.8574C3.14209 44.0881 3.06519 44.4397 2.98828 44.7363C2.82349 45.3406 2.72461 46.0217 2.72461 47.0215C2.72461 48.9551 2.95532 51.0974 3.51562 53.2617C3.27393 53.3166 3.01026 53.3826 2.8125 53.4375H3.60352C4.18579 55.6128 5.07568 57.7991 6.32812 59.9414C6.36108 59.9963 6.38306 60.0623 6.41602 60.1172C6.41602 60.1501 6.41602 60.1721 6.41602 60.2051C6.58081 60.8862 6.9873 61.4795 7.55859 61.875C7.59155 61.908 7.61352 61.9299 7.64648 61.9629C8.1189 62.6221 8.59131 63.2703 9.14062 63.8965C13.7439 69.1919 21.1707 73.2129 31.7285 73.2129C47.9443 73.2129 61.9849 66.5332 70.4004 53.4375H84.6387C82.8589 52.9871 78.9917 52.3389 79.6289 50.0098C77.6623 52.2839 74.0259 52.7673 71.0156 52.3828C72.0044 50.7459 72.9272 49.021 73.7402 47.1973C78.3984 46.9226 81.936 45.3516 83.9355 43.418C86.2207 41.2097 86.9238 38.6719 86.9238 38.6719C87.2205 37.6172 86.8799 36.4856 86.0449 35.7715C86.0449 35.7715 81.7932 32.7942 75.6738 33.3984C73.5754 27.7954 69.1699 25.0488 69.1699 25.0488C68.5876 24.7083 67.9065 24.5764 67.2363 24.6973C66.7859 24.7961 66.3574 25.0049 66.0059 25.3125C66.0059 25.3125 64.7205 26.4551 63.7207 28.3008C62.7209 30.1465 61.8201 32.948 62.1387 36.4746C62.2595 37.771 63.0505 38.9136 63.5449 40.166C63.1934 40.3857 62.8638 40.6384 62.4023 40.8691C60.9851 41.5613 59.0515 42.1875 56.5137 42.1875H56.25V33.75H47.8125V16.875H33.75ZM39.375 22.5H42.1875V25.3125H39.375V22.5ZM22.5 30.9375H25.3125V33.75H22.5V30.9375ZM30.9375 30.9375H33.75V33.75H30.9375V30.9375ZM39.375 30.9375H42.1875V33.75H39.375V30.9375ZM68.4668 31.8164C69.4775 32.959 70.5762 34.574 71.0156 36.9141C71.1584 37.6941 71.6199 38.3643 72.29 38.7817C72.9602 39.1992 73.7732 39.3201 74.5312 39.1113C77.0801 38.4192 78.9368 38.6389 80.2441 39.0234C80.0903 39.2102 80.1892 39.1772 79.9805 39.375C78.6951 40.6165 76.5417 42.0007 72.0703 41.8359C70.8838 41.792 69.7961 42.4951 69.3457 43.5938C68.0823 46.7249 66.6101 49.5374 64.8633 52.0312C60.7104 53.6462 51.4709 52.4597 50.7129 50.3613C47.9663 53.5803 39.4958 53.5803 36.7383 50.3613C35.8484 52.8333 23.0273 53.9758 20.8301 50.8008C19.0613 52.4487 12.6233 53.5474 8.96484 51.0645C8.73413 49.9329 8.56934 48.8232 8.52539 47.8125H56.5137C60.0183 47.8125 62.8418 46.8677 64.8633 45.8789C65.874 45.3845 66.72 44.8901 67.3242 44.4727C67.9285 44.0552 68.4338 43.6816 68.291 43.7695C68.9831 43.363 69.4665 42.6709 69.6094 41.8799C69.7632 41.0889 69.5764 40.2759 69.082 39.6387C68.335 38.6609 67.9065 37.4634 67.7637 35.9473C67.5879 33.9697 68.0383 32.8271 68.4668 31.8164ZM14.0625 39.375H16.875V42.1875H14.0625V39.375ZM22.5 39.375H25.3125V42.1875H22.5V39.375ZM30.9375 39.375H33.75V42.1875H30.9375V39.375ZM39.375 39.375H42.1875V42.1875H39.375V39.375ZM47.8125 39.375H50.625V42.1875H47.8125V39.375ZM9.58008 53.4375H63.8086C56.4038 63.0176 45.2087 67.5879 31.7285 67.5879C24.6643 67.5879 19.7095 65.6873 16.1719 62.9297C22.1484 62.7209 26.4551 61.1719 26.4551 61.1719C27.9822 60.8752 28.9929 59.4031 28.6963 57.876C28.3997 56.3489 26.9275 55.3381 25.4004 55.6348C25.2795 55.6567 25.1587 55.6897 25.0488 55.7227C24.895 55.7666 24.7522 55.8325 24.6094 55.8984C24.6094 55.8984 18.446 57.9199 11.1621 57.041C10.4919 55.8435 9.97559 54.657 9.58008 53.4375ZM30.1465 53.9648C29.2456 53.9648 28.4766 54.7229 28.4766 55.6348C28.4766 56.5356 29.2456 57.3047 30.1465 57.3047C31.0474 57.3047 31.7285 56.5356 31.7285 55.6348C31.7285 55.415 31.7175 55.2173 31.6406 55.0195C31.5308 55.2283 31.2781 55.3711 31.0254 55.3711C30.6519 55.3711 30.4102 55.0415 30.4102 54.668C30.4102 54.4153 30.4761 54.2505 30.6738 54.1406C30.4871 54.0637 30.3552 53.9648 30.1465 53.9648Z" fill="white"/>
</svg>
