<svg width="90" height="90" viewBox="0 0 90 90" fill="none" xmlns="http://www.w3.org/2000/svg">
<g clip-path="url(#clip0_5414_62)">
<path d="M12 28.2889V26.75C12 25.7554 12.439 24.8016 13.2204 24.0983C14.0018 23.3951 15.0616 23 16.1667 23H74.5C75.6051 23 76.6649 23.3951 77.4463 24.0983C78.2277 24.8016 78.6667 25.7554 78.6667 26.75V28.2889L45.3333 47.0389L12 28.2889ZM46.4375 50.8405C46.1063 51.0265 45.7237 51.1251 45.3333 51.1251C44.9429 51.1251 44.5604 51.0265 44.2292 50.8405L12 32.7111V64.25C12 65.2446 12.439 66.1984 13.2204 66.9016C14.0018 67.6049 15.0616 68 16.1667 68H74.5C75.6051 68 76.6649 67.6049 77.4463 66.9016C78.2277 66.1984 78.6667 65.2446 78.6667 64.25V32.7111L46.4375 50.8405Z" fill="white"/>
</g>
<defs>
<clipPath id="clip0_5414_62">
<rect width="66.6667" height="45" fill="white" transform="translate(12 23)"/>
</clipPath>
</defs>
</svg>
