<svg width="90" height="90" viewBox="0 0 90 90" fill="none" xmlns="http://www.w3.org/2000/svg">
<g clip-path="url(#clip0_5410_40)">
<path d="M54.4406 45C54.4012 44.3831 54.375 43.7606 54.375 43.125C54.375 31.725 59.7375 24.375 67.5 24.375C73.8956 24.375 79.3687 29.3663 80.625 37.5H84.375L84.3769 20.625H80.625C80.625 20.625 79.6256 23.4487 78.75 22.8C75.1894 20.8012 71.7694 20.6775 67.455 20.6775C56.58 20.6775 46.875 30.4875 46.875 42.975C46.875 43.6575 46.9144 44.3306 46.9669 45H43.0313C43.0856 44.3306 43.125 43.6575 43.125 42.975C43.125 30.4875 33.42 20.6775 22.545 20.6775C18.2306 20.6775 14.8106 20.7994 11.25 22.8C10.3744 23.4487 9.375 20.625 9.375 20.625H5.62313L5.625 37.5H9.375C10.6313 29.3663 16.1044 24.375 22.5 24.375C30.2625 24.375 35.625 31.725 35.625 43.125C35.625 43.7606 35.5988 44.3831 35.5594 45H0V48.75H1.89187C3.9225 48.75 5.59875 50.3644 5.64 52.3931C5.71125 55.8544 6.045 60.0112 7.5 61.875C9.87938 64.9219 13.125 67.5 22.5 67.5C31.9162 67.5 41.1 59.0119 43.125 48.75H46.875C48.9 59.0119 58.0838 67.5 67.5 67.5C76.875 67.5 80.1206 64.9219 82.5 61.875C83.955 60.0112 84.2888 55.8544 84.36 52.3931C84.4013 50.3644 86.0794 48.75 88.1081 48.75H90V45H54.4406ZM21.5194 63.2437C18.51 63.2437 13.7287 63.2325 13.125 60C12.9206 58.9069 12.9544 55.2619 13.0181 52.4138C13.065 50.3756 14.7281 48.75 16.7681 48.75H35.625C34.1362 57.7144 28.1531 63.2437 21.5194 63.2437ZM76.875 60C76.2713 63.2325 71.49 63.2437 68.4806 63.2437C61.8487 63.2437 55.8638 57.7144 54.375 48.75H73.2319C75.2719 48.75 76.935 50.3756 76.9819 52.4138C77.0456 55.2619 77.0794 58.9069 76.875 60Z" fill="white"/>
</g>
<defs>
<clipPath id="clip0_5410_40">
<rect width="90" height="90" fill="white"/>
</clipPath>
</defs>
</svg>
