<svg width="90" height="90" viewBox="0 0 90 90" fill="none" xmlns="http://www.w3.org/2000/svg">
<path d="M45 10C25.119 10 9 26.119 9 46C9 62.869 20.616 76.984 36.276 80.89C36.108 80.404 36 79.84 36 79.141V72.988C34.539 72.988 32.091 72.988 31.476 72.988C29.013 72.988 26.823 71.929 25.761 69.961C24.582 67.774 24.378 64.429 21.456 62.383C20.589 61.702 21.249 60.925 22.248 61.03C24.093 61.552 25.623 62.818 27.063 64.696C28.497 66.577 29.172 67.003 31.851 67.003C33.15 67.003 35.094 66.928 36.924 66.64C37.908 64.141 39.609 61.84 41.688 60.754C29.7 59.521 23.979 53.557 23.979 45.46C23.979 41.974 25.464 38.602 27.987 35.761C27.159 32.941 26.118 27.19 28.305 25C33.699 25 36.96 28.498 37.743 29.443C40.431 28.522 43.383 28 46.485 28C49.593 28 52.557 28.522 55.251 29.449C56.025 28.51 59.289 25 64.695 25C66.891 27.193 65.838 32.968 65.001 35.782C67.509 38.617 68.985 41.98 68.985 45.46C68.985 53.551 63.273 59.512 51.303 60.751C54.597 62.47 57 67.3 57 70.939V79.141C57 79.453 56.931 79.678 56.895 79.945C70.923 75.028 81 61.708 81 46C81 26.119 64.881 10 45 10Z" fill="white"/>
</svg>
