<svg width="90" height="90" viewBox="0 0 90 90" fill="none" xmlns="http://www.w3.org/2000/svg">
<path d="M44.9945 8.4375C40.0079 8.4375 15.5677 22.4547 13.1012 26.7297C10.6318 31.0075 10.6318 59.0148 13.1012 63.2758C15.579 67.5479 40.0192 81.5625 44.9945 81.5625C49.9557 81.5625 74.3961 67.5561 76.8823 63.2867C79.377 59.0061 79.377 30.977 76.8823 26.7133V26.7078C74.3764 22.4412 49.9389 8.4375 44.9945 8.4375ZM44.989 14.0955C49.7618 15.0883 68.6748 25.9222 71.9879 29.5587C73.5066 34.174 73.5038 55.812 71.9879 60.4358C68.6973 64.0667 49.7674 74.9145 44.989 75.9045C40.2134 74.9202 21.2973 64.0778 18.0011 60.4413C16.4964 55.8063 16.4964 34.1881 18.0011 29.5587C21.2889 25.9222 40.2106 15.0798 44.989 14.0955ZM36.5625 25.3125L30.9375 30.9375H33.75V59.0625H39.375V47.8125H50.625V59.0625H47.8125L53.4375 64.6875L59.0625 59.0625H56.25V33.75H50.625V42.1875H39.375V30.9375H42.1875L36.5625 25.3125Z" fill="white"/>
</svg>
