<svg width="90" height="90" viewBox="0 0 90 90" fill="none" xmlns="http://www.w3.org/2000/svg">
<path d="M45 6C23.496 6 6 23.496 6 45C6 66.504 23.496 84 45 84C66.504 84 84 66.504 84 45C84 23.496 66.504 6 45 6ZM34.998 18H54.9961C64.3711 18 72 25.626 72 34.998V54.9961C72 64.3711 64.374 72 55.002 72H35.0039C25.6289 72 18 64.374 18 55.002V35.0039C18 25.6289 25.626 18 34.998 18ZM34.998 24C28.935 24 24 28.9379 24 35.0039V55.002C24 61.065 28.9379 66 35.0039 66H55.002C61.065 66 66 61.0621 66 54.9961V34.998C66 28.935 61.0621 24 54.9961 24H34.998ZM59.0039 28.998C60.1079 28.998 61.002 29.8921 61.002 30.9961C61.002 32.1001 60.1079 33 59.0039 33C57.8999 33 57 32.1001 57 30.9961C57 29.8921 57.8999 28.998 59.0039 28.998ZM45 30C53.271 30 60 36.729 60 45C60 53.271 53.271 60 45 60C36.729 60 30 53.271 30 45C30 36.729 36.729 30 45 30ZM45 36C42.6131 36 40.3239 36.9482 38.636 38.636C36.9482 40.3239 36 42.6131 36 45C36 47.3869 36.9482 49.6761 38.636 51.364C40.3239 53.0518 42.6131 54 45 54C47.3869 54 49.6761 53.0518 51.364 51.364C53.0518 49.6761 54 47.3869 54 45C54 42.6131 53.0518 40.3239 51.364 38.636C49.6761 36.9482 47.3869 36 45 36Z" fill="white"/>
</svg>
