<svg width="90" height="90" viewBox="0 0 90 90" fill="none" xmlns="http://www.w3.org/2000/svg">
<path d="M53.55 11.0014C52.9811 11.0195 52.4417 11.2585 52.0462 11.6679L32.5911 31.133L21.3896 42.3267C21.1649 42.5461 20.9901 42.8113 20.877 43.1043C15.5896 49.0997 15.6627 58.2434 21.3896 63.9708L32.5911 75.173C38.5466 81.129 48.278 81.129 54.2336 75.173L64.0765 65.3294C64.2796 65.1257 64.4406 64.884 64.5503 64.6181C64.6601 64.3523 64.7163 64.0673 64.716 63.7797C64.7156 63.4921 64.6585 63.2073 64.5481 62.9417C64.4377 62.6761 64.276 62.4348 64.0724 62.2317C63.8687 62.0286 63.627 61.8676 63.3611 61.7579C63.0952 61.6482 62.8104 61.5919 62.5227 61.5924C62.2351 61.5928 61.9504 61.6498 61.6848 61.7603C61.4192 61.8708 61.178 62.0325 60.9749 62.2362L51.132 72.0798C46.8509 76.3612 39.9652 76.3612 35.6841 72.0798L24.4826 60.8775C20.2015 56.5961 20.2015 49.7013 24.4826 45.4199L35.6841 34.2262C39.9652 29.9448 46.8509 29.9448 51.132 34.2262L60.9749 44.0699C61.3851 44.4812 61.9418 44.7127 62.5227 44.7135C63.1035 44.7143 63.6609 44.4843 64.0722 44.0741C64.4835 43.6639 64.715 43.1072 64.7158 42.5263C64.7166 41.9454 64.4866 41.388 64.0765 40.9766L54.2336 31.133C51.2027 28.1019 47.1941 26.6527 43.203 26.7068L55.1478 14.7611C55.466 14.4536 55.6836 14.0569 55.7717 13.6232C55.8597 13.1895 55.8142 12.7393 55.6412 12.332C55.4681 11.9247 55.1755 11.5795 54.8022 11.3419C54.4289 11.1044 53.9922 10.9856 53.55 11.0014ZM39.9049 50.9655C39.6151 50.9614 39.3273 51.015 39.0584 51.1231C38.7894 51.2312 38.5446 51.3917 38.3382 51.5952C38.1318 51.7987 37.9679 52.0413 37.856 52.3087C37.7441 52.5761 37.6865 52.8631 37.6865 53.153C37.6865 53.4429 37.7441 53.7299 37.856 53.9973C37.9679 54.2648 38.1318 54.5073 38.3382 54.7108C38.5446 54.9143 38.7894 55.0748 39.0584 55.1829C39.3273 55.291 39.6151 55.3446 39.9049 55.3405H70.0916C70.3814 55.3446 70.6692 55.291 70.9382 55.1829C71.2071 55.0748 71.4519 54.9143 71.6583 54.7108C71.8647 54.5073 72.0286 54.2648 72.1405 53.9973C72.2524 53.7299 72.31 53.4429 72.31 53.153C72.31 52.8631 72.2524 52.5761 72.1405 52.3087C72.0286 52.0413 71.8647 51.7987 71.6583 51.5952C71.4519 51.3917 71.2071 51.2312 70.9382 51.1231C70.6692 51.015 70.3814 50.9614 70.0916 50.9655H39.9049Z" fill="white"/>
</svg>
