<svg width="90" height="90" viewBox="0 0 90 90" fill="none" xmlns="http://www.w3.org/2000/svg">
<path d="M42.1093 11.7C27.2283 11.7 12.6 23.5981 12.6 41.0609C12.6 61.0775 32.1998 74.1339 49.7667 69.2683C52.7086 74.283 56.5836 79.2 63.972 79.2C76.1811 79.2 77.2875 67.95 77.2875 65.1375H72.9149C72.6899 67.1512 71.3182 69.2354 67.9601 69.2354C64.9001 69.2354 62.6924 67.1191 60.5718 63.896C67.1699 58.7913 71.5197 50.8317 71.5197 41.0554C71.5337 23.5195 57.3024 11.7 42.1093 11.7ZM42.1093 17.325C53.483 17.325 58.3361 25.5078 58.3361 41.0609C58.3501 47.299 57.5242 52.3419 55.8367 56.0573C52.9257 51.6979 49.316 48.2679 42.1807 48.2679C37.6272 48.2679 34.517 49.5937 32.3204 51.5034L34.1387 55.1344C35.064 54.6872 35.6447 54.7004 36.66 54.7004C41.9588 54.7004 44.6753 59.3014 46.9872 63.8521C45.4937 64.2992 43.8925 64.4783 42.1038 64.4783C30.91 64.4783 26.0582 56.5656 26.0582 41.0884C26.061 25.5043 30.9155 17.325 42.1093 17.325Z" fill="white"/>
</svg>
