<svg width="90" height="90" viewBox="0 0 90 90" fill="none" xmlns="http://www.w3.org/2000/svg">
<path d="M52.2 5.40002C48.4102 5.40002 43.9805 8.37424 43.3125 21.6563C43.875 21.6422 44.4305 21.6 45 21.6C45.6329 21.6 46.2868 21.6352 46.9125 21.6563C47.3414 13.6758 49.2399 9.00002 52.2 9.00002C53.4657 9.00002 54.1829 9.68909 55.5188 11.1375C57.0797 12.8321 59.1188 15.0328 63.1125 15.8625C63.0493 15.3914 63 14.8852 63 14.4C63 13.6406 63.0774 12.9235 63.225 12.2063C60.75 11.5313 59.4422 10.1039 58.1625 8.71877C56.7352 7.1719 55.0969 5.40002 52.2 5.40002ZM73.8 7.20002C69.8274 7.20002 66.6 10.4344 66.6 14.4C66.6 18.3656 69.8274 21.6 73.8 21.6C77.7727 21.6 81 18.3656 81 14.4C81 10.4344 77.7727 7.20002 73.8 7.20002ZM45 25.2C23.161 25.2 5.40004 36.3235 5.40004 52.2C5.40004 68.0766 23.161 81 45 81C66.8391 81 84.6 68.0766 84.6 52.2C84.6 36.3235 66.8391 25.2 45 25.2ZM13.5 26.8875C10.8703 26.8875 8.37426 27.9633 6.46879 29.8688C3.36801 32.9696 2.72816 37.4274 4.50004 41.1188C7.22113 35.8524 11.9039 31.3594 17.9438 28.0125C16.5727 27.3164 15.0539 26.8875 13.5 26.8875ZM76.5 26.8875C74.9461 26.8875 73.4274 27.3164 72.0563 28.0125C78.0961 31.3594 82.7789 35.8524 85.5 41.1188C87.2719 37.4274 86.6321 32.9696 83.5313 29.8688C81.6258 27.9633 79.1297 26.8875 76.5 26.8875ZM30.6 41.4C33.5813 41.4 36 43.8188 36 46.8C36 49.7813 33.5813 52.2 30.6 52.2C27.6188 52.2 25.2 49.7813 25.2 46.8C25.2 43.8188 27.6188 41.4 30.6 41.4ZM59.4 41.4C62.3813 41.4 64.8 43.8188 64.8 46.8C64.8 49.7813 62.3813 52.2 59.4 52.2C56.4188 52.2 54 49.7813 54 46.8C54 43.8188 56.4188 41.4 59.4 41.4ZM28.9125 61.2C29.3625 61.2774 29.8055 61.5305 30.0938 61.9313C30.2836 62.1985 34.5024 67.8375 45 67.8375C55.6383 67.8375 59.8641 62.0438 59.9063 61.9875C60.4758 61.1789 61.6219 60.961 62.4375 61.5375C63.2461 62.1071 63.4008 63.1969 62.8313 64.0125C62.6203 64.3149 57.4875 71.4375 45 71.4375C32.5055 71.4375 27.3797 64.3149 27.1688 64.0125C26.5993 63.1969 26.7469 62.1071 27.5625 61.5375C27.9703 61.2492 28.4625 61.1227 28.9125 61.2Z" fill="white"/>
</svg>
