<svg width="90" height="90" viewBox="0 0 90 90" fill="none" xmlns="http://www.w3.org/2000/svg">
<path d="M45 9C25.1499 9 9 25.1499 9 45C9 64.8501 25.1499 81 45 81C64.8501 81 81 64.8517 81 45C81 25.1483 64.8501 9 45 9ZM60.2377 61.1811C59.7855 61.8602 59.0408 62.2263 58.2819 62.2263C57.8345 62.2263 57.3823 62.0996 56.9817 61.832C53.1125 59.252 46.5505 57.5309 41.0744 57.5325C35.2635 57.5356 30.9076 58.9625 30.8638 58.9766C29.6371 59.3928 28.3057 58.7232 27.8957 57.4934C27.4858 56.2636 28.1508 54.9337 29.3805 54.5253C29.5871 54.4565 34.5109 52.8434 41.0744 52.8402C46.5505 52.8371 54.167 54.3141 59.5868 57.9268C60.6664 58.6465 60.9574 60.1031 60.2377 61.1811ZM64.919 51.5745C64.4105 52.3912 63.5327 52.8402 62.6362 52.8402C62.1512 52.8402 61.6599 52.7104 61.2187 52.4334C54.203 48.0619 46.9933 47.1372 40.7818 47.192C33.7693 47.2546 28.1617 48.5923 28.0663 48.6205C26.6472 49.0242 25.1545 48.1949 24.7493 46.7696C24.3441 45.3411 25.1749 43.8563 26.6018 43.4526C27.0352 43.329 32.6318 41.9521 40.2937 41.888C47.2796 41.8301 55.9851 42.8424 64.0616 47.8742C65.318 48.6565 65.7044 50.315 64.919 51.5745ZM69.5893 40.3406C69.0057 41.3326 67.9606 41.8849 66.8873 41.8849C66.349 41.8849 65.8046 41.7456 65.3054 41.4546C57.1288 36.6544 47.1873 35.6358 40.2874 35.6264C40.2546 35.6264 40.2217 35.6264 40.1888 35.6264C31.8448 35.6264 25.419 37.094 25.3548 37.1097C23.6682 37.4962 21.9894 36.4541 21.5982 34.7706C21.207 33.0887 22.2506 31.4083 23.9326 31.0156C24.222 30.9483 31.0875 29.368 40.1888 29.368C40.2248 29.368 40.2608 29.368 40.2968 29.368C47.9712 29.379 59.0893 30.5462 68.4753 36.0567C69.9648 36.9329 70.4639 38.8511 69.5893 40.3406Z" fill="white"/>
</svg>
