<svg width="90" height="90" viewBox="0 0 90 90" fill="none" xmlns="http://www.w3.org/2000/svg">
<path d="M54.1828 15L50.4552 17.5806L63.2867 36.4337L67.0143 33.853L54.1828 15ZM44.5054 23.4588L41.4946 26.8996L58.6989 41.81L61.7097 38.3692L44.5054 23.4588ZM37.6237 33.4946L35.5448 37.5806L55.8315 47.9032L57.9104 43.8172L37.6237 33.4946ZM33.681 43.8889L32.6774 48.3333L54.828 53.5663L55.8315 49.1219L33.681 43.8889ZM23 49.767V75H64.2903V49.767H59.7025V70.4122H27.5878V49.767H23ZM32.3907 53.638L32.1039 58.2258L54.828 59.5161L55.1147 54.9283L32.3907 53.638ZM32.1756 61.2366V65.8244H54.9713V61.2366H32.1756Z" fill="white"/>
</svg>
