<svg width="90" height="90" viewBox="0 0 90 90" fill="none" xmlns="http://www.w3.org/2000/svg">
<path fill-rule="evenodd" clip-rule="evenodd" d="M62.1332 41.8168C61.3499 33.3668 55.9832 25.8335 45.8499 25.8335C38.4999 25.8335 35.1666 29.6668 34.1666 31.1002L39.5499 35.0168C39.5499 35.0168 39.5666 35.0168 39.5666 34.9835C39.5666 34.9835 41.2999 32.5002 45.8332 32.5002C50.8332 32.5002 53.7499 35.6501 54.9165 39.6168C53.0332 39.2835 51.3332 39.1668 49.9999 39.1668C43.3999 39.1668 39.1833 41.0668 36.5666 43.4501C33.5833 46.1501 32.4999 49.6001 32.4999 52.5001C32.4999 60.4167 40.5333 63.3334 45.8332 63.3334C54.3499 63.3334 59.8999 56.9001 61.6332 49.2334C64.4998 51.3334 66.6665 54.7001 66.6665 60.0001C66.6665 61.9834 65.6498 64.3501 63.7499 66.5167C60.4499 70.3 54.5165 73.3334 45.8332 73.3334C39.2166 73.3334 33.1833 71.2 28.8166 66.6334C24.3166 61.9334 21.6666 54.7501 21.6666 45.0001C21.6666 35.2501 25 16.6002 45.8166 16.6669C65.7998 16.7169 69.1498 31.9502 69.2165 32.2502L75.6498 30.4668C74.8665 27.2168 69.6165 10.0669 45.8499 10.0002C19.7667 9.91689 15 33.2501 15 45.0001C15 56.7501 18.5333 65.5 24 71.2334C29.6166 77.1 37.3166 80 45.8332 80C64.9998 80 73.3332 67.65 73.3332 60.0001C73.3332 49.9001 67.9832 44.5501 62.1165 41.8168H62.1332ZM45.8499 56.6667C44.4166 56.6667 42.5499 56.3667 41.0499 55.5167C40.0166 54.9167 39.1833 53.9834 39.1833 52.5001C39.1833 49.4001 41.9832 45.8334 50.0166 45.8334C51.3666 45.8334 53.3166 45.9834 55.3832 46.4668C54.6499 51.7334 51.5166 56.6667 45.8499 56.6667Z" fill="white"/>
</svg>
