<svg width="90" height="90" viewBox="0 0 90 90" fill="none" xmlns="http://www.w3.org/2000/svg">
<path d="M80.8172 26.1C80.1 22.1414 76.6828 19.2586 72.7172 18.3586C66.7828 17.1 55.8 16.2 43.9172 16.2C32.0414 16.2 20.8828 17.1 14.9414 18.3586C10.9828 19.2586 7.55862 21.9586 6.84143 26.1C6.11721 30.6 5.40002 36.9 5.40002 45C5.40002 53.1 6.11721 59.4 7.01721 63.9C7.74143 67.8586 11.1586 70.7414 15.1172 71.6414C21.4172 72.9 32.2172 73.8 44.1 73.8C55.9828 73.8 66.7828 72.9 73.0828 71.6414C77.0414 70.7414 80.4586 68.0414 81.1828 63.9C81.9 59.4 82.8 52.9172 82.9828 45C82.6172 36.9 81.7172 30.6 80.8172 26.1ZM34.2 57.6V32.4L56.1586 45L34.2 57.6Z" fill="white"/>
</svg>
